<svg xmlns="http://www.w3.org/2000/svg" width="960" height="620" viewBox="0 0 960 620">
<rect width="100%" height="100%" fill="white"/>
<text x="90" y="57" font-size="13" text-anchor="start" font-weight="bold" fill="#111827">Remote completed GET (M/s)</text>
<line x1="90" y1="75" x2="90" y2="275" stroke="#374151"/>
<line x1="90" y1="275" x2="925" y2="275" stroke="#374151"/>
<line x1="90" y1="275.0" x2="925" y2="275.0" stroke="#e5e7eb"/>
<text x="82" y="279.0" font-size="11" text-anchor="end" font-weight="normal" fill="#111827">0.0</text>
<line x1="90" y1="225.0" x2="925" y2="225.0" stroke="#e5e7eb"/>
<text x="82" y="229.0" font-size="11" text-anchor="end" font-weight="normal" fill="#111827">1.3</text>
<line x1="90" y1="175.0" x2="925" y2="175.0" stroke="#e5e7eb"/>
<text x="82" y="179.0" font-size="11" text-anchor="end" font-weight="normal" fill="#111827">2.6</text>
<line x1="90" y1="125.0" x2="925" y2="125.0" stroke="#e5e7eb"/>
<text x="82" y="129.0" font-size="11" text-anchor="end" font-weight="normal" fill="#111827">4.0</text>
<line x1="90" y1="75.0" x2="925" y2="75.0" stroke="#e5e7eb"/>
<text x="82" y="79.0" font-size="11" text-anchor="end" font-weight="normal" fill="#111827">5.3</text>
<text x="90.0" y="295" font-size="11" text-anchor="middle" font-weight="normal" fill="#111827">1</text>
<text x="257.0" y="295" font-size="11" text-anchor="middle" font-weight="normal" fill="#111827">2</text>
<text x="424.0" y="295" font-size="11" text-anchor="middle" font-weight="normal" fill="#111827">4</text>
<text x="591.0" y="295" font-size="11" text-anchor="middle" font-weight="normal" fill="#111827">8</text>
<text x="758.0" y="295" font-size="11" text-anchor="middle" font-weight="normal" fill="#111827">16</text>
<text x="925.0" y="295" font-size="11" text-anchor="middle" font-weight="normal" fill="#111827">32</text>
<polyline points="90.0,254.7 257.0,237.0 424.0,207.8 591.0,175.5 758.0,141.9 925.0,96.4" fill="none" stroke="#2563eb" stroke-width="3"/>
<circle cx="90.0" cy="254.7" r="4" fill="#2563eb"/>
<circle cx="257.0" cy="237.0" r="4" fill="#2563eb"/>
<circle cx="424.0" cy="207.8" r="4" fill="#2563eb"/>
<circle cx="591.0" cy="175.5" r="4" fill="#2563eb"/>
<circle cx="758.0" cy="141.9" r="4" fill="#2563eb"/>
<circle cx="925.0" cy="96.4" r="4" fill="#2563eb"/>
<rect x="90" y="38" width="13" height="4" fill="#2563eb"/>
<text x="108" y="45" font-size="12" text-anchor="start" font-weight="normal" fill="#111827">throughput</text>
<text x="480.0" y="26" font-size="18" text-anchor="middle" font-weight="bold" fill="#111827">Pipeline sweep</text>
<text x="90" y="342" font-size="13" text-anchor="start" font-weight="bold" fill="#111827">Remote span-v2 latency (us)</text>
<line x1="90" y1="360" x2="90" y2="565" stroke="#374151"/>
<line x1="90" y1="565" x2="925" y2="565" stroke="#374151"/>
<line x1="90" y1="565.0" x2="925" y2="565.0" stroke="#e5e7eb"/>
<text x="82" y="569.0" font-size="11" text-anchor="end" font-weight="normal" fill="#111827">0.0</text>
<line x1="90" y1="513.8" x2="925" y2="513.8" stroke="#e5e7eb"/>
<text x="82" y="517.75" font-size="11" text-anchor="end" font-weight="normal" fill="#111827">36.6</text>
<line x1="90" y1="462.5" x2="925" y2="462.5" stroke="#e5e7eb"/>
<text x="82" y="466.5" font-size="11" text-anchor="end" font-weight="normal" fill="#111827">73.2</text>
<line x1="90" y1="411.2" x2="925" y2="411.2" stroke="#e5e7eb"/>
<text x="82" y="415.25" font-size="11" text-anchor="end" font-weight="normal" fill="#111827">109.9</text>
<line x1="90" y1="360.0" x2="925" y2="360.0" stroke="#e5e7eb"/>
<text x="82" y="364.0" font-size="11" text-anchor="end" font-weight="normal" fill="#111827">146.5</text>
<line x1="90" y1="523.0" x2="925" y2="523.0" stroke="#f59e0b" stroke-dasharray="6 5"/>
<text x="921" y="518.0193315858454" font-size="11" text-anchor="end" font-weight="normal" fill="#111827">30 us objective</text>
<text x="90.0" y="585" font-size="11" text-anchor="middle" font-weight="normal" fill="#111827">1</text>
<text x="257.0" y="585" font-size="11" text-anchor="middle" font-weight="normal" fill="#111827">2</text>
<text x="424.0" y="585" font-size="11" text-anchor="middle" font-weight="normal" fill="#111827">4</text>
<text x="591.0" y="585" font-size="11" text-anchor="middle" font-weight="normal" fill="#111827">8</text>
<text x="758.0" y="585" font-size="11" text-anchor="middle" font-weight="normal" fill="#111827">16</text>
<text x="925.0" y="585" font-size="11" text-anchor="middle" font-weight="normal" fill="#111827">32</text>
<polyline points="90.0,545.6 257.0,540.0 424.0,530.0 591.0,508.9 758.0,482.7 925.0,468.5" fill="none" stroke="#dc2626" stroke-width="3"/>
<circle cx="90.0" cy="545.6" r="4" fill="#dc2626"/>
<circle cx="257.0" cy="540.0" r="4" fill="#dc2626"/>
<circle cx="424.0" cy="530.0" r="4" fill="#dc2626"/>
<circle cx="591.0" cy="508.9" r="4" fill="#dc2626"/>
<circle cx="758.0" cy="482.7" r="4" fill="#dc2626"/>
<circle cx="925.0" cy="468.5" r="4" fill="#dc2626"/>
<rect x="90" y="323" width="13" height="4" fill="#dc2626"/>
<text x="108" y="330" font-size="12" text-anchor="start" font-weight="normal" fill="#111827">avg</text>
<polyline points="90.0,547.9 257.0,543.4 424.0,536.5 591.0,514.5 758.0,483.1 925.0,469.0" fill="none" stroke="#16a34a" stroke-width="3"/>
<circle cx="90.0" cy="547.9" r="4" fill="#16a34a"/>
<circle cx="257.0" cy="543.4" r="4" fill="#16a34a"/>
<circle cx="424.0" cy="536.5" r="4" fill="#16a34a"/>
<circle cx="591.0" cy="514.5" r="4" fill="#16a34a"/>
<circle cx="758.0" cy="483.1" r="4" fill="#16a34a"/>
<circle cx="925.0" cy="469.0" r="4" fill="#16a34a"/>
<rect x="240" y="323" width="13" height="4" fill="#16a34a"/>
<text x="258" y="330" font-size="12" text-anchor="start" font-weight="normal" fill="#111827">p50</text>
<polyline points="90.0,506.9 257.0,483.8 424.0,440.5 591.0,382.0 758.0,405.9 925.0,403.4" fill="none" stroke="#9333ea" stroke-width="3"/>
<circle cx="90.0" cy="506.9" r="4" fill="#9333ea"/>
<circle cx="257.0" cy="483.8" r="4" fill="#9333ea"/>
<circle cx="424.0" cy="440.5" r="4" fill="#9333ea"/>
<circle cx="591.0" cy="382.0" r="4" fill="#9333ea"/>
<circle cx="758.0" cy="405.9" r="4" fill="#9333ea"/>
<circle cx="925.0" cy="403.4" r="4" fill="#9333ea"/>
<rect x="390" y="323" width="13" height="4" fill="#9333ea"/>
<text x="408" y="330" font-size="12" text-anchor="start" font-weight="normal" fill="#111827">p99</text>
<text x="480.0" y="26" font-size="18" text-anchor="middle" font-weight="bold" fill="#111827"></text>
</svg>
